<?xml version="1.0" standalone="no"?>
<!DOCTYPE svg PUBLIC "-//W3C//DTD SVG 20010904//EN"
 "http://www.w3.org/TR/2001/REC-SVG-20010904/DTD/svg10.dtd">
<svg version="1.0" xmlns="http://www.w3.org/2000/svg"
 width="200.000000pt" height="84.000000pt" viewBox="0 0 200.000000 84.000000"
 preserveAspectRatio="xMidYMid meet">

<g transform="translate(0.000000,84.000000) scale(0.100000,-0.100000)"
fill="#000000" stroke="none">
<path d="M710 480 c0 -60 4 -100 10 -100 6 0 10 40 10 100 0 60 -4 100 -10
100 -6 0 -10 -40 -10 -100z"/>
<path d="M790 500 c0 -94 16 -120 75 -120 59 0 75 26 75 120 0 47 -4 80 -10
80 -6 0 -10 -31 -10 -74 0 -82 -13 -106 -55 -106 -38 0 -55 35 -55 112 0 39
-4 68 -10 68 -6 0 -10 -33 -10 -80z"/>
<path d="M1000 480 l0 -100 43 0 c70 0 108 49 68 89 -11 11 -16 23 -11 26 6 4
10 19 10 35 0 35 -23 50 -74 50 l-36 0 0 -100z m81 64 c18 -21 0 -48 -35 -52
-24 -3 -26 0 -26 32 0 31 3 36 24 36 13 0 29 -7 37 -16z m10 -90 c19 -23 -1
-48 -40 -52 -30 -3 -31 -2 -31 32 0 33 2 36 29 36 16 0 34 -7 42 -16z"/>
<path d="M1170 480 c0 -60 4 -100 10 -100 6 0 10 20 10 45 l0 45 50 0 50 0 0
-45 c0 -25 5 -45 10 -45 6 0 10 40 10 100 0 60 -4 100 -10 100 -5 0 -10 -20
-10 -45 l0 -45 -50 0 -50 0 0 45 c0 25 -4 45 -10 45 -6 0 -10 -40 -10 -100z"/>
</g>
</svg>
